<?xml version="1.0" encoding="UTF-8" standalone="no"?>
<svg
   xmlns:dc="http://purl.org/dc/elements/1.1/"
   xmlns:cc="http://creativecommons.org/ns#"
   xmlns:rdf="http://www.w3.org/1999/02/22-rdf-syntax-ns#"
   xmlns:svg="http://www.w3.org/2000/svg"
   xmlns="http://www.w3.org/2000/svg"
   xmlns:sodipodi="http://sodipodi.sourceforge.net/DTD/sodipodi-0.dtd"
   xmlns:inkscape="http://www.inkscape.org/namespaces/inkscape"
   id="svg855"
   version="1.1"
	preserveAspectRatio="xMinYMin meet"
   viewBox="0 0 850.63762 523.55048"
   height="523.55048"
   width="850.63763"
   sodipodi:docname="Fictional_Emilia-Romagna_Flag.svg"
   inkscape:version="0.92.4 (5da689c313, 2019-01-14)">
  <sodipodi:namedview
     pagecolor="#ffffff"
     bordercolor="#666666"
     borderopacity="1"
     objecttolerance="10"
     gridtolerance="10"
     guidetolerance="10"
     inkscape:pageopacity="0"
     inkscape:pageshadow="2"
     inkscape:window-width="2560"
     inkscape:window-height="1361"
     id="namedview881"
     showgrid="false"
     fit-margin-top="15"
     fit-margin-left="15"
     fit-margin-right="15"
     fit-margin-bottom="15"
     inkscape:zoom="2.1163193"
     inkscape:cx="237.72898"
     inkscape:cy="223.97376"
     inkscape:window-x="-9"
     inkscape:window-y="-9"
     inkscape:window-maximized="1"
     inkscape:current-layer="svg855" />
  <metadata
     id="metadata861">
    <rdf:RDF>
      <cc:Work
         rdf:about="">
        <dc:format>image/svg+xml</dc:format>
        <dc:type
           rdf:resource="http://purl.org/dc/dcmitype/StillImage" />
        <dc:title>
 Flag of Emilia-Romagna</dc:title>
      </cc:Work>
    </rdf:RDF>
  </metadata>
  <defs
     id="defs859" />
  <title
     id="title839">
 Flag of Emilia-Romagna</title>
  <rect
     style="opacity:1;fill:#ffffff;fill-opacity:1;stroke:none;stroke-width:5.01585484;stroke-miterlimit:4;stroke-dasharray:none;stroke-opacity:0.94117647"
     id="rect942"
     width="850.06073"
     height="524.02301"
     x="0.28845215"
     y="-1.3936728e-05" />
  <g
     id="g940"
     transform="matrix(0.87603772,0,0,0.87603772,97.426563,45.665813)">
    <path
       id="rect843"
       d="M 177.22144,7.8384305 H 567.90878 V 401.57771 H 177.22144 Z"
       style="fill:none;fill-rule:evenodd;stroke:#009a49;stroke-width:5.78188372;stroke-linecap:butt;stroke-linejoin:miter;stroke-miterlimit:4;stroke-dasharray:none;stroke-opacity:1"
       inkscape:connector-curvature="0" />
    <path
       sodipodi:nodetypes="cccsscc"
       inkscape:connector-curvature="0"
       d="m 178.80495,188.90743 386.58323,205.49488 0.14144,-304.822499 c 0,0 -46.45653,17.889689 -101.54591,15.537999 C 402.07795,102.47512 329.06907,79.720449 294.91449,83.055958 230.36606,89.359724 179.29905,108.76471 179.29905,108.76471 Z"
       id="path845-0"
       style="fill:#009a49;fill-opacity:1;fill-rule:evenodd;stroke:none;stroke-width:0;stroke-linecap:butt;stroke-linejoin:miter" />
  </g>
  <g
     id="g936"
     transform="matrix(0.87603772,0,0,0.87603772,96.705458,45.665813)">
    <path
       id="rect847"
       d="M 176.86728,422.46819 H 573.7071 v 7.5907 H 176.86728 Z"
       style="fill:#f32837;fill-opacity:1;fill-rule:evenodd;stroke:#f32837;stroke-width:3.06633353;stroke-linecap:butt;stroke-linejoin:miter;stroke-opacity:1"
       inkscape:connector-curvature="0" />
    <g
       id="g906">
      <a
         transform="translate(48.736462)"
         id="a1418">
        <g
           id="text1416"
           style="font-style:normal;font-weight:normal;font-size:47.45566559px;line-height:1.25;font-family:sans-serif;letter-spacing:0px;word-spacing:0px;fill:#009a49;fill-opacity:1;stroke:none;stroke-width:1.18639171"
           transform="scale(0.86534408,1.1556097)"
           aria-label="RegioneEmilia-Romagna">
          <path
             id="path5125"
             style="font-style:normal;font-variant:normal;font-weight:normal;font-stretch:normal;font-family:'Clarendon Condensed';-inkscape-font-specification:'Clarendon Condensed, ';fill:#009a49;fill-opacity:1;stroke-width:1.18639171"
             d="m 148.32849,409.15246 v -22.26802 q 0,-1.01955 -0.27806,-1.34396 -0.27806,-0.3244 -1.13541,-0.27806 h -1.01956 v -3.80016 h 5.83927 v 0 h 6.95152 q 4.81971,0 7.11371,2.10863 2.31717,2.10862 2.31717,6.51125 0,4.72703 -2.36351,6.74297 -1.55251,1.32078 -4.56483,1.80739 v 0 q 1.32079,0.30123 2.15497,0.85735 2.64158,1.57568 3.12818,5.44536 l 0.37075,3.24404 q 0.25489,1.92325 0.46343,2.50254 0.23172,0.55612 0.76467,0.55612 0.76467,0 0.99638,-0.74149 0.23172,-0.76467 0.23172,-3.31356 h 2.6184 q 0,3.96236 -1.41347,5.86245 -1.41347,1.90008 -4.35628,1.90008 -3.31356,0 -4.68069,-1.48299 -1.36713,-1.48299 -1.5525,-5.28315 l -0.13903,-3.24404 q -0.13903,-2.75744 -0.78784,-3.75382 -0.64881,-0.99638 -2.294,-0.99638 h -1.55251 v 0 8.96745 q 0,0.81101 0.20855,1.15858 0.20855,0.32441 0.71832,0.32441 h 1.50616 v 3.80016 h -5.83927 -5.83927 v -3.80016 h 0.97321 q 0.81101,0 1.13542,-0.34758 0.3244,-0.3244 0.3244,-1.13541 z m 6.81248,-12.76762 v 0 h 1.83057 q 2.31717,0 3.31355,-1.29761 1.01956,-1.29762 1.01956,-4.30994 0,-2.96598 -1.01956,-4.24042 -0.99638,-1.27445 -3.31355,-1.27445 h -1.83057 v 0 z"
             inkscape:connector-curvature="0" />
          <path
             id="path5127"
             style="font-style:normal;font-variant:normal;font-weight:normal;font-stretch:normal;font-family:'Clarendon Condensed';-inkscape-font-specification:'Clarendon Condensed, ';fill:#009a49;fill-opacity:1;stroke-width:1.18639171"
             d="m 183.24826,415.08442 q -4.588,0 -6.882,-3.31356 -2.294,-3.31355 -2.31717,-9.96383 0,-6.27954 2.38669,-9.66261 2.40986,-3.40624 6.81248,-3.40624 4.00871,0 6.09416,2.96598 2.08545,2.96598 2.08545,8.66622 v 2.27083 0 h -11.19193 v 0 q 0.0695,4.86606 0.81101,6.74296 0.78784,1.99277 3.01232,1.99277 1.94642,0 2.80378,-1.59885 0.88052,-1.62202 0.67198,-4.86606 h 3.89284 q 0.16221,5.12095 -1.8769,7.64667 -2.01594,2.52572 -6.30271,2.52572 z m 2.08545,-15.87263 v 0 q -0.0463,-3.77699 -0.4866,-5.12094 -0.50978,-1.55251 -2.06228,-1.55251 -1.52934,0 -2.03911,1.87691 -0.37075,1.36713 -0.48661,4.79654 v 0 z"
             inkscape:connector-curvature="0" />
          <path
             id="path5129"
             style="font-style:normal;font-variant:normal;font-weight:normal;font-stretch:normal;font-family:'Clarendon Condensed';-inkscape-font-specification:'Clarendon Condensed, ';fill:#009a49;fill-opacity:1;stroke-width:1.18639171"
             d="m 198.75013,407.66947 q 0,1.04273 0.83419,1.43664 0.83418,0.37075 3.15135,0.37075 h 4.65751 q 4.07822,0 6.09416,1.57568 2.03911,1.57567 2.03911,4.7502 0,3.42941 -2.66474,5.14412 -2.66475,1.71471 -8.01741,1.71471 -5.35267,0 -8.04059,-1.18176 -2.66475,-1.15859 -2.66475,-3.5221 0,-1.41348 0.97322,-2.36352 0.99638,-0.92686 2.82694,-1.20493 v 0 q -0.57929,-0.27806 -1.08907,-0.62563 -2.24765,-1.55251 -2.24765,-4.07822 0,-1.43665 0.9037,-2.75744 0.90369,-1.34396 2.22448,-1.83056 v 0 l -0.46343,-0.39392 q -1.9696,-1.99277 -1.9696,-6.32588 0,-4.63434 2.1318,-7.13689 2.15497,-2.50254 6.11733,-2.50254 3.26721,0 5.28315,1.5525 v 0 q 0.20854,-0.6488 0.64881,-1.27444 1.34396,-1.90008 3.89284,-1.90008 1.87691,0 2.94281,1.20493 1.0659,1.18176 1.0659,3.29038 0,1.62202 -0.69515,2.47938 -0.69515,0.83418 -2.03911,0.83418 -1.13541,0 -1.73788,-0.62564 -0.57929,-0.64881 -0.57929,-1.85374 0,-1.2281 0.53295,-1.76105 0.55612,-0.55612 1.78422,-0.55612 h 0.0232 q -0.53295,-0.60246 -1.29762,-0.60246 -1.29761,0 -1.94642,1.15858 -0.44026,0.78784 -0.41709,1.85374 0,0.20855 0.0927,0.71832 0.11586,0.48661 0.27806,0.97322 0.46343,1.52933 0.44026,3.42941 0,4.70386 -1.99277,6.882 -1.96959,2.15497 -6.27953,2.15497 -1.94642,0.0232 -3.42941,-0.39392 v 0 q -0.5793,0.11586 -0.97322,0.50977 -0.39392,0.39392 -0.39392,0.85736 z m 4.79655,-15.82628 q -1.3903,0 -1.99277,1.34396 -0.57929,1.34396 -0.57929,4.51848 0,3.38307 0.55612,4.65752 0.55612,1.27444 2.01594,1.27444 1.36713,0 1.96959,-1.3903 0.62564,-1.39031 0.62564,-4.54166 0,-3.05866 -0.62564,-4.47214 -0.62563,-1.3903 -1.96959,-1.3903 z m -5.25998,25.25716 q 0,1.27445 1.64519,1.90009 1.64519,0.62563 4.93558,0.62563 3.29038,0 4.9124,-0.69515 1.64519,-0.69515 1.64519,-2.10863 0,-0.88052 -0.85735,-1.20492 -0.83418,-0.30124 -3.15135,-0.30124 h -4.65752 q -1.08907,0 -2.06228,-0.13903 v 0 q -1.01956,0.0232 -1.71471,0.5793 -0.69515,0.55612 -0.69515,1.34395 z"
             inkscape:connector-curvature="0" />
          <path
             id="path5131"
             style="font-style:normal;font-variant:normal;font-weight:normal;font-stretch:normal;font-family:'Clarendon Condensed';-inkscape-font-specification:'Clarendon Condensed, ';fill:#009a49;fill-opacity:1;stroke-width:1.18639171"
             d="m 220.55472,409.52321 v -15.22382 q 0,-0.85735 -0.27806,-1.15859 -0.27806,-0.3244 -1.04273,-0.3244 h -0.88052 v -3.42941 h 3.40624 3.40624 1.52933 v 20.13622 q 0,0.811 0.30123,1.15858 0.30124,0.3244 1.04273,0.3244 h 0.9037 v 3.42942 h -5.28315 -5.30632 v -3.42942 h 0.88052 q 0.71832,0 1.01956,-0.34757 0.30123,-0.32441 0.30123,-1.13541 z m 2.73426,-28.70976 q 1.5525,0 2.6184,1.0659 1.0659,1.0659 1.0659,2.59523 0,1.52934 -1.0659,2.59524 -1.0659,1.04272 -2.6184,1.04272 -1.5525,0 -2.6184,-1.04272 -1.0659,-1.0659 -1.0659,-2.59524 0,-1.52933 1.0659,-2.59523 1.0659,-1.0659 2.6184,-1.0659 z"
             inkscape:connector-curvature="0" />
          <path
             id="path5133"
             style="font-style:normal;font-variant:normal;font-weight:normal;font-stretch:normal;font-family:'Clarendon Condensed';-inkscape-font-specification:'Clarendon Condensed, ';fill:#009a49;fill-opacity:1;stroke-width:1.18639171"
             d="m 240.73728,415.08442 q -4.70386,0 -6.882,-3.17453 -2.15497,-3.19769 -2.17814,-10.10286 0.0232,-6.78932 2.17814,-9.9175 2.17814,-3.15135 6.882,-3.15135 4.72703,0 6.92834,3.15135 2.15497,3.10501 2.15497,9.77846 v 0.13904 q 0.0232,6.90517 -2.17814,10.10286 -2.17814,3.17453 -6.90517,3.17453 z m 0,-3.80016 q 1.64519,0 2.20131,-1.87691 0.55612,-1.90008 0.55612,-7.57715 0,-5.58439 -0.55612,-7.43812 -0.55612,-1.85374 -2.20131,-1.85374 -1.64519,0 -2.20131,1.85374 -0.53295,1.85373 -0.53295,7.43812 0,5.67707 0.53295,7.57715 0.55612,1.87691 2.20131,1.87691 z"
             inkscape:connector-curvature="0" />
          <path
             id="path5135"
             style="font-style:normal;font-variant:normal;font-weight:normal;font-stretch:normal;font-family:'Clarendon Condensed';-inkscape-font-specification:'Clarendon Condensed, ';fill:#009a49;fill-opacity:1;stroke-width:1.18639171"
             d="m 254.66347,409.52321 v -15.22382 q 0,-0.85735 -0.27806,-1.15859 -0.27806,-0.3244 -1.04272,-0.3244 h -0.88053 v -3.42941 h 3.40624 3.40625 1.52933 v 3.08184 0 0 l 0.4866,-0.60247 q 2.50255,-3.12818 6.00148,-3.12818 2.34034,0 3.66113,1.45982 1.32079,1.45982 1.32079,4.03188 v 15.29333 q 0,0.811 0.30123,1.15858 0.30123,0.3244 1.04273,0.3244 h 0.90369 v 3.42942 h -5.16729 -5.19046 v -3.42942 h 0.78783 q 0.64881,0 0.9037,-0.3244 0.27806,-0.34758 0.27806,-1.15858 v -13.764 q 0,-0.97321 -0.55612,-1.57568 -0.53295,-0.60246 -1.41347,-0.60246 -1.73788,0 -2.59524,1.69153 -0.83418,1.66837 -0.76466,5.05144 v 0 9.19917 q 0,0.811 0.25489,1.15858 0.25489,0.3244 0.88052,0.3244 h 0.76467 v 3.42942 h -5.12095 -5.12095 v -3.42942 h 0.88053 q 0.71832,0 1.01955,-0.34757 0.30123,-0.32441 0.30123,-1.13541 z"
             inkscape:connector-curvature="0" />
          <path
             id="path5137"
             style="font-style:normal;font-variant:normal;font-weight:normal;font-stretch:normal;font-family:'Clarendon Condensed';-inkscape-font-specification:'Clarendon Condensed, ';fill:#009a49;fill-opacity:1;stroke-width:1.18639171"
             d="m 286.50142,415.08442 q -4.588,0 -6.882,-3.31356 -2.294,-3.31355 -2.31717,-9.96383 0,-6.27954 2.38668,-9.66261 2.40986,-3.40624 6.81249,-3.40624 4.0087,0 6.09416,2.96598 2.08545,2.96598 2.08545,8.66622 v 2.27083 0 h -11.19194 v 0 q 0.0695,4.86606 0.81101,6.74296 0.78784,1.99277 3.01233,1.99277 1.94642,0 2.80377,-1.59885 0.88053,-1.62202 0.67198,-4.86606 h 3.89285 q 0.1622,5.12095 -1.87691,7.64667 -2.01594,2.52572 -6.3027,2.52572 z m 2.08545,-15.87263 v 0 q -0.0463,-3.77699 -0.48661,-5.12094 -0.50977,-1.55251 -2.06228,-1.55251 -1.52933,0 -2.03911,1.87691 -0.37075,1.36713 -0.48661,4.79654 v 0 z"
             inkscape:connector-curvature="0" />
          <path
             id="path5139"
             style="font-style:normal;font-variant:normal;font-weight:normal;font-stretch:normal;font-family:'Clarendon Condensed';-inkscape-font-specification:'Clarendon Condensed, ';fill:#009a49;fill-opacity:1;stroke-width:1.18639171"
             d="m 297.60065,414.43561 v -3.80016 h 0.97321 q 0.81101,0 1.13542,-0.32441 0.3244,-0.34757 0.3244,-1.15858 v -22.26802 q 0,-1.01955 -0.27806,-1.34396 -0.27806,-0.3244 -1.13541,-0.27806 h -1.01956 v -3.80016 h 9.24552 v 0 h 12.32735 v 0 5.58438 5.58439 h -3.22087 v -1.45982 q 0,-3.22087 -1.18176,-4.54166 -1.15858,-1.32078 -4.0087,-1.32078 h -3.91602 v 0 10.03335 0 h 1.94642 q 0.97321,0 1.36713,-0.50978 0.41709,-0.53295 0.41709,-1.80739 v -2.31717 h 3.22087 v 6.4649 6.48808 h -3.22087 v -2.24765 q 0,-1.25128 -0.41709,-1.76105 -0.39392,-0.50978 -1.36713,-0.50978 h -1.94642 v 0 11.49317 0 h 3.77698 q 2.94281,0 4.12457,-1.52934 1.20493,-1.52933 1.20493,-5.25997 v -1.69154 h 3.22087 v 6.1405 6.14051 0 h -12.32735 v 0 z"
             inkscape:connector-curvature="0" />
          <path
             id="path5141"
             style="font-style:normal;font-variant:normal;font-weight:normal;font-stretch:normal;font-family:'Clarendon Condensed';-inkscape-font-specification:'Clarendon Condensed, ';fill:#009a49;fill-opacity:1;stroke-width:1.18639171"
             d="m 323.8542,409.52321 v -15.22382 q 0,-0.85735 -0.27806,-1.15859 -0.27806,-0.3244 -1.04272,-0.3244 h -0.88053 v -3.42941 h 3.40624 3.40625 1.52933 v 3.40624 0 0 l 0.67198,-0.92687 q 2.4562,-3.12818 5.90878,-3.12818 2.31718,0 3.63796,1.43665 0.88053,0.97321 1.18176,2.47937 v 0 l 0.60246,-0.78784 q 2.50255,-3.12818 6.00148,-3.12818 2.34034,0 3.66113,1.45982 1.32079,1.45982 1.32079,4.03188 v 15.29333 q 0,0.811 0.30123,1.15858 0.30123,0.3244 1.04273,0.3244 h 0.90369 v 3.42942 h -5.12095 -5.12094 v -3.42942 h 0.74149 q 0.60246,0 0.85735,-0.3244 0.25489,-0.34758 0.25489,-1.15858 v -13.764 q 0,-0.97321 -0.55612,-1.57568 -0.53295,-0.60246 -1.41347,-0.60246 -1.73788,0 -2.59523,1.69153 -0.83419,1.66837 -0.76467,5.05144 v 0 9.19917 q 0,0.811 0.25489,1.15858 0.27806,0.3244 0.92687,0.3244 h 0.78783 v 3.42942 h -4.98191 -4.98192 v -3.42942 h 0.74149 q 0.60247,0 0.85736,-0.3244 0.25489,-0.34758 0.25489,-1.15858 v -13.74083 q 0,-0.99638 -0.55613,-1.59885 -0.53295,-0.60246 -1.43664,-0.60246 -1.76105,0 -2.61841,1.69153 -0.83418,1.66837 -0.76466,5.05144 v 0 9.19917 q 0,0.811 0.25489,1.15858 0.27806,0.3244 0.95004,0.3244 h 0.81101 v 3.42942 h -5.16729 -5.19047 v -3.42942 h 0.88053 q 0.71832,0 1.01955,-0.34757 0.30123,-0.32441 0.30123,-1.13541 z"
             inkscape:connector-curvature="0" />
          <path
             id="path5143"
             style="font-style:normal;font-variant:normal;font-weight:normal;font-stretch:normal;font-family:'Clarendon Condensed';-inkscape-font-specification:'Clarendon Condensed, ';fill:#009a49;fill-opacity:1;stroke-width:1.18639171"
             d="m 358.84349,409.52321 v -15.22382 q 0,-0.85735 -0.27806,-1.15859 -0.27806,-0.3244 -1.04273,-0.3244 h -0.88052 v -3.42941 h 3.40624 3.40624 1.52933 v 20.13622 q 0,0.811 0.30124,1.15858 0.30123,0.3244 1.04272,0.3244 h 0.9037 v 3.42942 h -5.28315 -5.30632 v -3.42942 h 0.88052 q 0.71833,0 1.01956,-0.34757 0.30123,-0.32441 0.30123,-1.13541 z m 2.73426,-28.70976 q 1.55251,0 2.61841,1.0659 1.06589,1.0659 1.06589,2.59523 0,1.52934 -1.06589,2.59524 -1.0659,1.04272 -2.61841,1.04272 -1.5525,0 -2.6184,-1.04272 -1.0659,-1.0659 -1.0659,-2.59524 0,-1.52933 1.0659,-2.59523 1.0659,-1.0659 2.6184,-1.0659 z"
             inkscape:connector-curvature="0" />
          <path
             id="path5145"
             style="font-style:normal;font-variant:normal;font-weight:normal;font-stretch:normal;font-family:'Clarendon Condensed';-inkscape-font-specification:'Clarendon Condensed, ';fill:#009a49;fill-opacity:1;stroke-width:1.18639171"
             d="m 371.42573,409.52321 v -23.14854 q 0,-0.85736 -0.20854,-1.15859 -0.20855,-0.3244 -0.78784,-0.3244 h -1.20493 v -3.42942 h 3.40624 3.40624 1.52933 v 28.06095 q 0,0.811 0.30124,1.15858 0.30123,0.3244 1.04272,0.3244 h 0.9037 v 3.42942 h -5.28315 -5.30632 v -3.42942 h 0.88052 q 0.71833,0 1.01956,-0.34757 0.30123,-0.32441 0.30123,-1.13541 z"
             inkscape:connector-curvature="0" />
          <path
             id="path5147"
             style="font-style:normal;font-variant:normal;font-weight:normal;font-stretch:normal;font-family:'Clarendon Condensed';-inkscape-font-specification:'Clarendon Condensed, ';fill:#009a49;fill-opacity:1;stroke-width:1.18639171"
             d="m 383.31282,409.52321 v -15.22382 q 0,-0.85735 -0.27806,-1.15859 -0.27806,-0.3244 -1.04273,-0.3244 h -0.88052 v -3.42941 h 3.40624 3.40624 1.52933 v 20.13622 q 0,0.811 0.30124,1.15858 0.30123,0.3244 1.04272,0.3244 h 0.9037 v 3.42942 h -5.28315 -5.30632 v -3.42942 h 0.88052 q 0.71833,0 1.01956,-0.34757 0.30123,-0.32441 0.30123,-1.13541 z m 2.73426,-28.70976 q 1.55251,0 2.61841,1.0659 1.06589,1.0659 1.06589,2.59523 0,1.52934 -1.06589,2.59524 -1.0659,1.04272 -2.61841,1.04272 -1.5525,0 -2.6184,-1.04272 -1.0659,-1.0659 -1.0659,-2.59524 0,-1.52933 1.0659,-2.59523 1.0659,-1.0659 2.6184,-1.0659 z"
             inkscape:connector-curvature="0" />
          <path
             id="path5149"
             style="font-style:normal;font-variant:normal;font-weight:normal;font-stretch:normal;font-family:'Clarendon Condensed';-inkscape-font-specification:'Clarendon Condensed, ';fill:#009a49;fill-opacity:1;stroke-width:1.18639171"
             d="m 400.90015,415.08442 q -3.05867,0 -4.93557,-1.71471 -1.85374,-1.73788 -1.85374,-4.56483 0,-2.4562 1.5525,-4.14773 1.55251,-1.71471 5.4917,-3.56845 l 2.7806,-1.29761 q 0.62564,-0.30124 1.13542,-0.7415 0.78784,-0.67198 1.13541,-1.52933 0.37075,-0.88053 0.32441,-1.99277 -0.0464,-1.11224 -0.60247,-1.76105 -0.99638,-1.32079 -3.63796,-1.32079 -2.22448,0 -3.38307,0.71833 l 0.0464,-0.0232 0.60246,-0.0463 q 1.34396,0 2.10863,0.85735 0.78784,0.83419 0.78784,2.294 0,1.25128 -1.08908,2.20132 -1.08907,0.95004 -2.54888,0.95004 -1.83057,0 -2.91964,-1.11225 -1.0659,-1.13541 -1.0659,-3.03549 0,-2.91964 2.54889,-4.70386 2.57206,-1.80739 6.76614,-1.80739 3.96236,0 6.11733,1.80739 2.15497,1.78422 2.15497,5.12095 v 11.53951 q 0,2.61841 0.11586,3.40625 0.13903,0.78783 0.55612,0.78783 0.60247,0 0.76467,-0.41709 0.18537,-0.41709 0.18537,-1.80739 v -1.76105 h 2.54889 v 1.76105 q 0,2.7806 -1.29762,4.28677 -1.27444,1.48299 -3.66113,1.48299 -2.82695,0 -4.10139,-2.24766 -0.30123,-0.57929 -0.55612,-1.29762 v 0 q -0.39392,0.64881 -0.85735,1.18176 -2.1318,2.50255 -5.21364,2.50255 z m 5.37584,-9.77847 v -3.82333 0 l -0.0927,0.0927 q -3.98553,3.40624 -4.88923,4.51848 -0.88053,1.11224 -0.88053,2.66475 0,1.27444 0.60247,1.94642 0.60246,0.67198 1.76105,0.67198 1.57568,0 2.43303,-1.45982 0.3244,-0.55612 0.62564,-1.41347 0.18537,-0.53295 0.30123,-1.45982 0.13903,-0.92687 0.13903,-1.73788 z"
             inkscape:connector-curvature="0" />
          <path
             id="path5151"
             style="font-style:normal;font-variant:normal;font-weight:normal;font-stretch:normal;font-family:'Clarendon Condensed';-inkscape-font-specification:'Clarendon Condensed, ';fill:#009a49;fill-opacity:1;stroke-width:1.18639171"
             d="m 418.46433,399.62888 h 7.3686 v 4.07823 h -7.3686 z"
             inkscape:connector-curvature="0" />
          <path
             id="path5153"
             style="font-style:normal;font-variant:normal;font-weight:normal;font-stretch:normal;font-family:'Clarendon Condensed';-inkscape-font-specification:'Clarendon Condensed, ';fill:#009a49;fill-opacity:1;stroke-width:1.18639171"
             d="m 430.9307,409.15246 v -22.26802 q 0,-1.01955 -0.27807,-1.34396 -0.27806,-0.3244 -1.13541,-0.27806 h -1.01955 v -3.80016 h 5.83927 v 0 h 6.95151 q 4.81972,0 7.11372,2.10863 2.31717,2.10862 2.31717,6.51125 0,4.72703 -2.36352,6.74297 -1.5525,1.32078 -4.56482,1.80739 v 0 q 1.32078,0.30123 2.15496,0.85735 2.64158,1.57568 3.12819,5.44536 l 0.37074,3.24404 q 0.25489,1.92325 0.46344,2.50254 0.23171,0.55612 0.76466,0.55612 0.76467,0 0.99639,-0.74149 0.23171,-0.76467 0.23171,-3.31356 h 2.61841 q 0,3.96236 -1.41348,5.86245 -1.41347,1.90008 -4.35628,1.90008 -3.31355,0 -4.68068,-1.48299 -1.36714,-1.48299 -1.55251,-5.28315 l -0.13903,-3.24404 q -0.13903,-2.75744 -0.78784,-3.75382 -0.64881,-0.99638 -2.294,-0.99638 h -1.5525 v 0 8.96745 q 0,0.81101 0.20854,1.15858 0.20855,0.32441 0.71833,0.32441 h 1.50616 v 3.80016 h -5.83927 -5.83927 v -3.80016 h 0.97321 q 0.81101,0 1.13541,-0.34758 0.32441,-0.3244 0.32441,-1.13541 z m 6.81248,-12.76762 v 0 h 1.83056 q 2.31717,0 3.31356,-1.29761 1.01955,-1.29762 1.01955,-4.30994 0,-2.96598 -1.01955,-4.24042 -0.99639,-1.27445 -3.31356,-1.27445 h -1.83056 v 0 z"
             inkscape:connector-curvature="0" />
          <path
             id="path5155"
             style="font-style:normal;font-variant:normal;font-weight:normal;font-stretch:normal;font-family:'Clarendon Condensed';-inkscape-font-specification:'Clarendon Condensed, ';fill:#009a49;fill-opacity:1;stroke-width:1.18639171"
             d="m 465.59559,415.08442 q -4.70386,0 -6.882,-3.17453 -2.15497,-3.19769 -2.17814,-10.10286 0.0232,-6.78932 2.17814,-9.9175 2.17814,-3.15135 6.882,-3.15135 4.72703,0 6.92834,3.15135 2.15497,3.10501 2.15497,9.77846 v 0.13904 q 0.0232,6.90517 -2.17814,10.10286 -2.17814,3.17453 -6.90517,3.17453 z m 0,-3.80016 q 1.64519,0 2.20131,-1.87691 0.55612,-1.90008 0.55612,-7.57715 0,-5.58439 -0.55612,-7.43812 -0.55612,-1.85374 -2.20131,-1.85374 -1.64519,0 -2.20132,1.85374 -0.53295,1.85373 -0.53295,7.43812 0,5.67707 0.53295,7.57715 0.55613,1.87691 2.20132,1.87691 z"
             inkscape:connector-curvature="0" />
          <path
             id="path5157"
             style="font-style:normal;font-variant:normal;font-weight:normal;font-stretch:normal;font-family:'Clarendon Condensed';-inkscape-font-specification:'Clarendon Condensed, ';fill:#009a49;fill-opacity:1;stroke-width:1.18639171"
             d="m 479.56812,409.52321 v -15.22382 q 0,-0.85735 -0.27806,-1.15859 -0.27806,-0.3244 -1.04273,-0.3244 h -0.88053 v -3.42941 h 3.40625 3.40624 1.52933 v 3.40624 0 0 l 0.67198,-0.92687 q 2.4562,-3.12818 5.90879,-3.12818 2.31717,0 3.63796,1.43665 0.88052,0.97321 1.18175,2.47937 v 0 l 0.60247,-0.78784 q 2.50254,-3.12818 6.00147,-3.12818 2.34034,0 3.66113,1.45982 1.32079,1.45982 1.32079,4.03188 v 15.29333 q 0,0.811 0.30123,1.15858 0.30123,0.3244 1.04273,0.3244 h 0.9037 v 3.42942 h -5.12095 -5.12095 v -3.42942 h 0.74149 q 0.60247,0 0.85736,-0.3244 0.25489,-0.34758 0.25489,-1.15858 v -13.764 q 0,-0.97321 -0.55613,-1.57568 -0.53294,-0.60246 -1.41347,-0.60246 -1.73788,0 -2.59523,1.69153 -0.83418,1.66837 -0.76467,5.05144 v 0 9.19917 q 0,0.811 0.25489,1.15858 0.27806,0.3244 0.92687,0.3244 h 0.78784 v 3.42942 h -4.98192 -4.98192 v -3.42942 h 0.7415 q 0.60246,0 0.85735,-0.3244 0.25489,-0.34758 0.25489,-1.15858 v -13.74083 q 0,-0.99638 -0.55612,-1.59885 -0.53295,-0.60246 -1.43665,-0.60246 -1.76105,0 -2.6184,1.69153 -0.83418,1.66837 -0.76467,5.05144 v 0 9.19917 q 0,0.811 0.25489,1.15858 0.27806,0.3244 0.95004,0.3244 h 0.81101 v 3.42942 h -5.16729 -5.19047 v -3.42942 h 0.88053 q 0.71832,0 1.01956,-0.34757 0.30123,-0.32441 0.30123,-1.13541 z"
             inkscape:connector-curvature="0" />
          <path
             id="path5159"
             style="font-style:normal;font-variant:normal;font-weight:normal;font-stretch:normal;font-family:'Clarendon Condensed';-inkscape-font-specification:'Clarendon Condensed, ';fill:#009a49;fill-opacity:1;stroke-width:1.18639171"
             d="m 519.91005,415.08442 q -3.05866,0 -4.93557,-1.71471 -1.85374,-1.73788 -1.85374,-4.56483 0,-2.4562 1.55251,-4.14773 1.5525,-1.71471 5.49169,-3.56845 l 2.78061,-1.29761 q 0.62563,-0.30124 1.13541,-0.7415 0.78784,-0.67198 1.13542,-1.52933 0.37074,-0.88053 0.3244,-1.99277 -0.0463,-1.11224 -0.60247,-1.76105 -0.99638,-1.32079 -3.63795,-1.32079 -2.22449,0 -3.38307,0.71833 l 0.0463,-0.0232 0.60246,-0.0463 q 1.34396,0 2.10863,0.85735 0.78784,0.83419 0.78784,2.294 0,1.25128 -1.08907,2.20132 -1.08907,0.95004 -2.54889,0.95004 -1.83057,0 -2.91964,-1.11225 -1.06589,-1.13541 -1.06589,-3.03549 0,-2.91964 2.54888,-4.70386 2.57206,-1.80739 6.76614,-1.80739 3.96237,0 6.11734,1.80739 2.15496,1.78422 2.15496,5.12095 v 11.53951 q 0,2.61841 0.11586,3.40625 0.13903,0.78783 0.55612,0.78783 0.60247,0 0.76467,-0.41709 0.18537,-0.41709 0.18537,-1.80739 v -1.76105 h 2.54889 v 1.76105 q 0,2.7806 -1.29761,4.28677 -1.27445,1.48299 -3.66113,1.48299 -2.82695,0 -4.1014,-2.24766 -0.30123,-0.57929 -0.55612,-1.29762 v 0 q -0.39392,0.64881 -0.85735,1.18176 -2.1318,2.50255 -5.21364,2.50255 z m 5.37584,-9.77847 v -3.82333 0 l -0.0927,0.0927 q -3.98553,3.40624 -4.88923,4.51848 -0.88052,1.11224 -0.88052,2.66475 0,1.27444 0.60246,1.94642 0.60247,0.67198 1.76105,0.67198 1.57568,0 2.43303,-1.45982 0.32441,-0.55612 0.62564,-1.41347 0.18537,-0.53295 0.30123,-1.45982 0.13903,-0.92687 0.13903,-1.73788 z"
             inkscape:connector-curvature="0" />
          <path
             id="path5161"
             style="font-style:normal;font-variant:normal;font-weight:normal;font-stretch:normal;font-family:'Clarendon Condensed';-inkscape-font-specification:'Clarendon Condensed, ';fill:#009a49;fill-opacity:1;stroke-width:1.18639171"
             d="m 541.69146,407.66947 q 0,1.04273 0.83419,1.43664 0.83418,0.37075 3.15135,0.37075 h 4.65751 q 4.07822,0 6.09416,1.57568 2.03911,1.57567 2.03911,4.7502 0,3.42941 -2.66474,5.14412 -2.66475,1.71471 -8.01742,1.71471 -5.35266,0 -8.04058,-1.18176 -2.66475,-1.15859 -2.66475,-3.5221 0,-1.41348 0.97322,-2.36352 0.99638,-0.92686 2.82694,-1.20493 v 0 q -0.57929,-0.27806 -1.08907,-0.62563 -2.24765,-1.55251 -2.24765,-4.07822 0,-1.43665 0.9037,-2.75744 0.90369,-1.34396 2.22448,-1.83056 v 0 l -0.46343,-0.39392 q -1.9696,-1.99277 -1.9696,-6.32588 0,-4.63434 2.1318,-7.13689 2.15497,-2.50254 6.11733,-2.50254 3.26721,0 5.28315,1.5525 v 0 q 0.20854,-0.6488 0.64881,-1.27444 1.34396,-1.90008 3.89284,-1.90008 1.87691,0 2.94281,1.20493 1.0659,1.18176 1.0659,3.29038 0,1.62202 -0.69515,2.47938 -0.69515,0.83418 -2.03911,0.83418 -1.13541,0 -1.73788,-0.62564 -0.57929,-0.64881 -0.57929,-1.85374 0,-1.2281 0.53295,-1.76105 0.55612,-0.55612 1.78422,-0.55612 h 0.0232 q -0.53295,-0.60246 -1.29762,-0.60246 -1.29761,0 -1.94642,1.15858 -0.44026,0.78784 -0.41709,1.85374 0,0.20855 0.0927,0.71832 0.11586,0.48661 0.27806,0.97322 0.46343,1.52933 0.44026,3.42941 0,4.70386 -1.99277,6.882 -1.96959,2.15497 -6.27953,2.15497 -1.94642,0.0232 -3.42941,-0.39392 v 0 q -0.5793,0.11586 -0.97322,0.50977 -0.39392,0.39392 -0.39392,0.85736 z m 4.79655,-15.82628 q -1.3903,0 -1.99277,1.34396 -0.57929,1.34396 -0.57929,4.51848 0,3.38307 0.55612,4.65752 0.55612,1.27444 2.01594,1.27444 1.36713,0 1.96959,-1.3903 0.62564,-1.39031 0.62564,-4.54166 0,-3.05866 -0.62564,-4.47214 -0.62563,-1.3903 -1.96959,-1.3903 z m -5.25998,25.25716 q 0,1.27445 1.64519,1.90009 1.64519,0.62563 4.93558,0.62563 3.29038,0 4.9124,-0.69515 1.64519,-0.69515 1.64519,-2.10863 0,-0.88052 -0.85735,-1.20492 -0.83418,-0.30124 -3.15136,-0.30124 h -4.65751 q -1.08907,0 -2.06228,-0.13903 v 0 q -1.01956,0.0232 -1.71471,0.5793 -0.69515,0.55612 -0.69515,1.34395 z"
             inkscape:connector-curvature="0" />
          <path
             id="path5163"
             style="font-style:normal;font-variant:normal;font-weight:normal;font-stretch:normal;font-family:'Clarendon Condensed';-inkscape-font-specification:'Clarendon Condensed, ';fill:#009a49;fill-opacity:1;stroke-width:1.18639171"
             d="m 563.49605,409.52321 v -15.22382 q 0,-0.85735 -0.27806,-1.15859 -0.27806,-0.3244 -1.04273,-0.3244 h -0.88052 v -3.42941 h 3.40624 3.40624 1.52933 v 3.08184 0 0 l 0.48661,-0.60247 q 2.50254,-3.12818 6.00147,-3.12818 2.34034,0 3.66113,1.45982 1.32079,1.45982 1.32079,4.03188 v 15.29333 q 0,0.811 0.30123,1.15858 0.30123,0.3244 1.04273,0.3244 h 0.90369 v 3.42942 h -5.16729 -5.19046 v -3.42942 h 0.78784 q 0.64881,0 0.90369,-0.3244 0.27807,-0.34758 0.27807,-1.15858 v -13.764 q 0,-0.97321 -0.55613,-1.57568 -0.53295,-0.60246 -1.41347,-0.60246 -1.73788,0 -2.59523,1.69153 -0.83418,1.66837 -0.76467,5.05144 v 0 9.19917 q 0,0.811 0.25489,1.15858 0.25489,0.3244 0.88053,0.3244 h 0.76466 v 3.42942 h -5.12095 -5.12094 v -3.42942 h 0.88052 q 0.71832,0 1.01956,-0.34757 0.30123,-0.32441 0.30123,-1.13541 z"
             inkscape:connector-curvature="0" />
          <path
             id="path5165"
             style="font-style:normal;font-variant:normal;font-weight:normal;font-stretch:normal;font-family:'Clarendon Condensed';-inkscape-font-specification:'Clarendon Condensed, ';fill:#009a49;fill-opacity:1;stroke-width:1.18639171"
             d="m 592.48388,415.08442 q -3.05867,0 -4.93558,-1.71471 -1.85374,-1.73788 -1.85374,-4.56483 0,-2.4562 1.55251,-4.14773 1.5525,-1.71471 5.49169,-3.56845 l 2.78061,-1.29761 q 0.62564,-0.30124 1.13541,-0.7415 0.78784,-0.67198 1.13542,-1.52933 0.37074,-0.88053 0.3244,-1.99277 -0.0463,-1.11224 -0.60246,-1.76105 -0.99639,-1.32079 -3.63796,-1.32079 -2.22449,0 -3.38307,0.71833 l 0.0463,-0.0232 0.60247,-0.0463 q 1.34396,0 2.10862,0.85735 0.78784,0.83419 0.78784,2.294 0,1.25128 -1.08907,2.20132 -1.08907,0.95004 -2.54889,0.95004 -1.83056,0 -2.91963,-1.11225 -1.0659,-1.13541 -1.0659,-3.03549 0,-2.91964 2.54889,-4.70386 2.57206,-1.80739 6.76614,-1.80739 3.96236,0 6.11733,1.80739 2.15497,1.78422 2.15497,5.12095 v 11.53951 q 0,2.61841 0.11585,3.40625 0.13904,0.78783 0.55613,0.78783 0.60246,0 0.76466,-0.41709 0.18538,-0.41709 0.18538,-1.80739 v -1.76105 h 2.54888 v 1.76105 q 0,2.7806 -1.29761,4.28677 -1.27445,1.48299 -3.66113,1.48299 -2.82695,0 -4.10139,-2.24766 -0.30124,-0.57929 -0.55613,-1.29762 v 0 q -0.39392,0.64881 -0.85735,1.18176 -2.1318,2.50255 -5.21363,2.50255 z m 5.37583,-9.77847 v -3.82333 0 l -0.0927,0.0927 q -3.98554,3.40624 -4.88924,4.51848 -0.88052,1.11224 -0.88052,2.66475 0,1.27444 0.60246,1.94642 0.60247,0.67198 1.76105,0.67198 1.57568,0 2.43303,-1.45982 0.32441,-0.55612 0.62564,-1.41347 0.18537,-0.53295 0.30123,-1.45982 0.13903,-0.92687 0.13903,-1.73788 z"
             inkscape:connector-curvature="0" />
        </g>
      </a>
    </g>
  </g>
</svg>
