<?xml version="1.0" encoding="UTF-8"?>
<svg xmlns="http://www.w3.org/2000/svg" xmlns:xlink="http://www.w3.org/1999/xlink" width="375" height="250" viewBox="0 0 375 250">
	<rect width="375" height="250" fill="#ffd228"/>
	<g fill="#b4001e" stroke="#000" stroke-width=".6">
		<g id="fleur1">
			<path d="M 53.716,55.716 c 0.143,-2.61 -1.402,-4.965 -3.4,-6.963 c 1.885,-0.566 4.023,-1.706 5.281,-3.176 c -2.727,0.39 -5.414,0.848 -7.958,-1.696 c -1.089,-1.089 -2.056,-3.096 -2.196,-4.64 l -8.204,8.204 c 1.544,0.14 3.552,1.107 4.64,2.196 c 2.543,2.544 2.085,5.231 1.696,7.958 c 1.47,-1.258 2.611,-3.396 3.176,-5.281 c 1.999,1.999 4.353,3.543 6.963,3.4 z"/>
			<path d="M 28.086,33.473 c -7.991,-7.991 -18.006,-4.017 -18.005,1.407 c 0,3.888 6.25,8.883 13.167,3.255 c -2.152,0.046 -4.041,-0.742 -4.042,-2.087 c -0.001,-2.412 6.044,-3.871 8.808,-1.107 l 4.927,-4.927 c -2.764,-2.765 -1.304,-8.808 1.107,-8.808 c 1.344,0 2.132,1.89 2.087,4.041 c 5.627,-6.916 0.632,-13.165 -3.256,-13.166 c -5.424,-0.001 -9.398,10.014 -1.407,18.005 z"/>
			<path d="M 29.065,33.891 c 0,0 -10.66,-5.008 -15.035,-9.375 c -2.402,-2.402 -3.646,-5.85 -4.03,-12.515 c 6.665,0.384 10.116,1.625 12.515,4.03 c 4.371,4.371 9.375,15.035 9.375,15.035 z"/>
		</g>
		<g id="fleur2">
			<path d="M 112,16 c -1.947,1.745 -2.52,4.502 -2.52,7.328 c -1.733,-0.933 -4.051,-1.638 -5.98,-1.488 c 2.203,1.653 4.428,3.229 4.428,6.826 c 0,1.54 -0.736,3.643 -1.729,4.834 l 11.602,0 c -0.993,-1.191 -1.729,-3.294 -1.729,-4.834 c 0,-3.597 2.224,-5.174 4.428,-6.826 c -1.93,-0.15 -4.248,0.556 -5.98,1.488 c 0,-2.826 -0.573,-5.584 -2.52,-7.328 z"/>
			<path d="M 114.395,42.488 c 0,11.301 9.891,15.572 13.726,11.737 c 2.748,-2.75 1.861,-10.7 -7.009,-11.612 c 1.554,1.489 2.333,3.382 1.383,4.334 c -1.705,1.706 -7.011,-1.536 -7.011,-5.446 l -6.967,0 c 0,3.91 -5.306,7.151 -7.011,5.446 c -0.951,-0.951 -0.171,-2.844 1.382,-4.334 c -8.869,0.912 -9.756,8.862 -7.008,11.612 c 3.835,3.836 13.726,-0.436 13.726,-11.737 z"/>
			<path d="M 113.998,41.5 c 0,0 3.997,11.079 4.002,17.261 c 0,3.397 -1.558,6.714 -6,11.699 c -4.442,-4.984 -6.004,-8.302 -6,-11.699 c 0,-6.182 4.002,-17.261 4.002,-17.261 z"/>
		</g>
		<g id="fleur3">
			<path d="M 187.5,56 c -1.947,-1.745 -2.52,-4.502 -2.52,-7.328 c -1.733,0.933 -4.051,1.638 -5.98,1.488 c 2.203,-1.653 4.428,-3.229 4.428,-6.826 c 0,-1.54 -0.736,-3.643 -1.729,-4.834 l 11.602,0 c -0.993,1.191 -1.729,3.294 -1.729,4.834 c 0,3.597 2.224,5.174 4.428,6.826 c -1.93,0.15 -4.248,-0.556 -5.98,-1.488 c 0,2.826 -0.573,5.584 -2.52,7.328 z"/>
			<path d="M 190.984,30.5 c 0,-2.764 5.305,-5.687 7.01,-4.48 c 0.951,0.673 0.171,2.143 -1.383,3.197 c 8.87,-0.645 9.758,-6.269 7.01,-8.213 c -3.835,-2.713 -13.727,0.511 -13.727,8.5 l -4.789,0 c 0,-7.989 -9.892,-11.213 -13.727,-8.5 c -2.748,1.944 -1.86,7.568 7.01,8.213 c -1.554,-1.054 -2.333,-2.524 -1.383,-3.197 c 1.705,-1.206 7.01,1.716 7.01,4.48 z"/>
			<path d="M 185.502,30.5 c 0,0 -3.997,-7.849 -4.002,-12.219 c 0,-2.402 1.558,-4.756 6,-8.281 c 4.442,3.524 6.004,5.879 6,8.281 c 0,4.371 -4.002,12.219 -4.002,12.219 z"/>
		</g>
		<use xlink:href="#fleur2" x="-375" transform="scale(-1,1)"/>
		<use xlink:href="#fleur1" x="-375" transform="scale(-1,1)"/>
		<g id="fleur4">
			<path d="M 14,125 c 1.745,-1.947 4.502,-2.52 7.328,-2.52 c -0.933,-1.733 -1.638,-4.051 -1.488,-5.981 c 1.653,2.204 3.229,4.428 6.826,4.428 c 1.54,0 3.643,-0.736 4.834,-1.729 l 0,11.602 c -1.191,-0.993 -3.294,-1.729 -4.834,-1.729 c -3.597,0 -5.174,2.224 -6.826,4.428 c -0.15,-1.93 0.556,-4.248 1.488,-5.98 c -2.826,0 -5.584,-0.573 -7.328,-2.52 z"/>
			<path d="M 40.488,127.395 c 11.301,0 15.573,9.891 11.737,13.726 c -2.75,2.748 -10.7,1.861 -11.612,-7.009 c 1.489,1.554 3.382,2.333 4.334,1.383 c 1.706,-1.705 -1.536,-7.011 -5.446,-7.011 l 0,-6.967 c 3.91,0 7.151,-5.306 5.446,-7.011 c -0.951,-0.951 -2.844,-0.171 -4.334,1.382 c 0.912,-8.869 8.862,-9.756 11.612,-7.008 c 3.836,3.835 -0.436,13.726 -11.737,13.726 z"/>
			<path d="M 39.5,126.998 c 0,0 11.079,3.997 17.261,4.002 c 3.397,0 6.714,-1.558 11.699,-6 c -4.984,-4.442 -8.302,-6.004 -11.699,-6 c -6.182,0 -17.261,4.002 -17.261,4.002 z"/>
		</g>
		<use xlink:href="#fleur4" x="-375" transform="scale(-1,1)"/>
		<use xlink:href="#fleur1" y="-250" transform="scale(1,-1)"/>
		<use xlink:href="#fleur2" y="-250" transform="scale(1,-1)"/>
		<use xlink:href="#fleur3" y="-250" transform="scale(1,-1)"/>
		<use xlink:href="#fleur2" x="-375" y="-250" transform="scale(-1)"/>
		<use xlink:href="#fleur1" x="-375" y="-250" transform="scale(-1)"/>
		<path d="M 338.5,38.5 l -302,0 l 0,173 l 302,0 z m -297,5 l 292,0 l 0,163 l -292,0 z"/>
		<path d="M 348.5,28.5 l -322,0 l 0,193 l 322,0 z m -317,5 l 312,0 l 0,183 l -312,0 z"/>
		<path d="M 141.617,76.582 l -1.42,-3.775 c -1.528,1.542 -4.17,1.64 -6.516,0.689 c 1.644,3.86 5.593,3.697 7.936,3.086 z" fill="#1e82d2" stroke-width=".8"/>
		<path d="M 151.438,60.224 l -4.204,0.101 c 0.951,-2.013 0.086,-4.519 -1.696,-6.352 c 4.369,0.076 5.645,3.829 5.9,6.251 z" fill="#1e82d2" stroke-width=".8"/>
		<path d="M 144.54,69.692 c -2.173,3.016 -3.674,0.401 -5.473,3.199 c -0.378,0.588 0.811,0.906 1.33,1.668 c 0.552,0.81 0.627,3.326 1.142,2.808 c 3.437,-3.456 3.261,-3.748 6.104,-2.144 c 2.655,1.497 2.605,6.793 3.905,9.206 c 0.188,-2.568 1.303,-3.231 1.661,-1.891 c 0.358,1.34 -0.648,6.135 -0.153,7.403 c 1.327,-2.133 2.056,-2.483 2.056,-2.483 c 0,0 -1.427,7.439 -0.766,8.494 c 1.001,-2.799 2.803,-3.518 3.409,-4.274 c 0.606,-0.756 -2.172,5.39 -1.518,8.355 c 1.758,-3.474 2.797,-3.965 2.797,-3.965 c 0,0 -1.223,5.025 -0.41,7.747 c 1.041,-3.022 1.924,-2.907 2.302,-3.663 c -0.795,5.856 6.974,11.64 6.974,11.64 l 13.999,-12.014 C 174.975,94.412 168.958,94.096 164.422,81.638 C 162.89,77.432 158.064,72.302 153.56,69.335 C 148.024,65.688 154.105,62.01 151.394,59.226 c -0.211,-0.108 -0.35,-0.142 -0.477,-0.136 c -0.383,0.018 -0.572,0.405 -1.552,0.408 c -1.375,0.004 -3.091,-0.948 -2.865,0.732 c 0.264,1.965 -0.008,3.443 0.87,4.544" stroke-width=".9"/>
		<path d="M 144.184,58.675 l -2.642,3.272 c -0.595,-2.145 -2.2,-3.161 -4.749,-3.389 c 2.956,-3.07 5.614,-1.552 7.39,0.117 z" fill="#1e82d2" stroke-width=".8"/>
		<path d="M 148.238,65.761 c -2.624,-2.563 0.132,-5.448 -4.183,-7.843 c -1.024,-0.568 -0.53,1.521 -1.345,2.369 c -0.72,0.749 -3.054,1.494 -1.947,2.257 c 2.4,1.655 2.771,1.34 5.056,4.766" stroke-width=".9"/>
		<path d="M 140.079,62.25 l -1.137,4.041 c -1.648,-1.498 -4.304,-1.409 -6.582,-0.247 c 1.356,-4.146 5.325,-4.262 7.719,-3.794 z" fill="#1e82d2" stroke-width=".8"/>
		<path d="M 146.781,66.908 c -2.315,-1.183 -7.242,-7.041 -7.941,-5.531 c -0.492,1.061 0.248,1.817 0.041,2.703 c -0.236,1.01 -1.372,2.541 -0.228,3.248 c 1.42,0.877 3.101,-2.503 5.88,2.365" stroke-width=".9"/>
		<path d="M 133.223,121.911 l -0.984,4.08 c -1.704,-1.436 -4.354,-1.247 -6.587,0 c 1.199,-4.194 5.161,-4.458 7.571,-4.08 z" fill="#1e82d2" stroke-width=".8"/>
		<path d="M 129.157,130.774 l 2.196,3.579 c -2.222,0.188 -3.961,2.192 -4.656,4.65 c -2.125,-3.811 0.488,-6.795 2.46,-8.229 z" fill="#1e82d2" stroke-width=".8"/>
		<path d="M 136.661,135.927 l 3.487,2.345 c -1.943,1.092 -2.691,3.636 -2.3,6.16 c -3.519,-2.586 -2.383,-6.384 -1.187,-8.506 z" fill="#1e82d2" stroke-width=".8"/>
		<path d="M 180.619,98.109 c -16.682,11.914 -23.311,15.857 -33.92,23.651 c -2.171,1.595 -5.71,2.757 -8.253,2.494 c -2.328,-0.241 -5.434,-4.56 -7.117,-3.287 c -0.755,0.571 0.342,1.256 0.268,2.678 c -0.074,1.422 -1.912,1.987 -0.912,2.687 c 1.586,1.11 4.656,0.353 6.284,0.642 c -3.016,2.091 -9.771,2.457 -9.881,4.118 c -0.077,1.167 1.925,1.065 2.423,1.889 c 0.537,0.889 0.541,2.715 1.704,2.04 c 2.322,-1.348 3.874,-5.075 7.836,-5.101 c 0.24,4.03 -3.546,5.28 -3.71,7.103 c -0.063,0.696 2.195,-0.034 2.953,0.491 c 0.807,0.558 1.653,2.481 2.082,1.889 c 1.564,-2.154 -0.319,-8.455 3.975,-10.314 c 2.263,-0.98 0.959,5.541 1.439,8.236 c 1.969,-1.839 3.521,-4.131 4.543,-7.33 c 0.543,1.058 0.669,2.116 0.606,3.174 c 0.921,-1.562 1.199,-3.123 1.514,-4.685 c 0,0 1.174,2.002 1.211,3.023 c 0.757,-0.718 0.909,-4.836 0.909,-4.836 c 0,0 0.606,3.023 2.574,3.854 c -0.227,-1.36 0.303,-4.307 0.303,-4.307 c 0,0 2.082,4.08 5.149,4.534 c -1.552,-1.7 -1.817,-4.987 -1.817,-4.987 c 0,0 2.801,2.985 3.937,3.325 c -0.984,-2.418 0.606,-4.08 0.606,-4.08 c 0,0 1.136,2.418 4.316,2.456 c -2.158,-1.662 -1.59,-3.06 -1.59,-3.06 c 0,0 3.521,2.342 5.3,2.267 c -0.871,-2.116 1.817,-2.569 1.817,-2.569 c 0,0 1.06,1.133 0.644,2.947 c 1.514,-1.247 4.202,-4.458 4.202,-4.458 c 1.64,2.96 5.089,7.912 10.491,8.553 c 3.224,0.382 6.21,-0.31 9.762,2.517 l -3.294,-36.611 l -16.354,1.058 z" stroke-width=".9"/>
		<path d="M 154.494,152.754 l -2.769,3.159 c -0.841,-2.061 -3.277,-3.121 -5.835,-3.051 c 3.012,-3.16 6.645,-1.559 8.604,-0.108 z" fill="#1e82d2" stroke-width=".8"/>
		<path d="M 153.544,167.723 l 2.977,2.965 c -2.115,0.703 -3.335,3.059 -3.432,5.611 c -2.962,-3.206 -1.124,-6.719 0.455,-8.576 z" fill="#1e82d2" stroke-width=".8"/>
		<path d="M 156.783,163.918 c -0.184,4.033 -3.097,0.696 -5.269,4.646 c -0.337,0.612 2.336,-0.107 3.035,0.494 c 0.744,0.639 1.353,3.027 1.91,2.553 c 3.788,-3.226 1.158,-6.741 4.399,-6.228 c 2.051,0.325 1.547,4.78 4.27,6.206 c 0.139,-2.28 1.073,-2.859 2.158,-3.892 c 1.189,2.345 2.226,4.5 4.701,6.014 c 0.102,-1.774 0.811,-3.094 1.897,-4.414 c 0,0 2.965,5.756 4.536,6.416 c -0.171,-2.023 2.353,-6.194 2.353,-6.194 c 0,0 1.648,3.013 2.191,4.422 c 0.902,-0.758 3.15,-3.926 3.15,-3.926 c 3.822,1.246 6.281,0.414 7.226,-2.912 c -13.151,4.509 -10.739,-15.094 -0.008,-14.848 c 3.55,0.081 7.05,0.724 7.05,0.724 L 200.98,137.03 c 0,0 -5.445,0.496 -9.342,0.153 c -4.031,-0.355 -2.063,-2.016 -6.514,-2.28 c -4.542,-0.272 -8.823,6.466 -12.007,5.718 c -2.527,-0.594 -6.434,-1.66 -3.102,-7.76 c -3.584,2.43 -5.351,4.747 -2.575,8.764 c -3.052,-0.109 -6.407,-1.578 -8.475,-4.748 c 0.87,5.19 3.443,7.924 8.628,7.862 c -1.428,2.96 -3.423,4.861 -7.349,4.459 c 3.915,2.189 5.862,1.43 9.702,-2.502 c 0.102,1.32 -0.326,2.564 -1.057,3.846 c 1.842,-0.488 3.683,-0.711 5.525,-0.442 c -0.934,3.902 2.561,6.633 2.421,10.347 l -13.709,-0.511 c -3.387,-0.076 -4.108,-1.76 -6.207,-3.216 c -1.457,-1.011 -1.143,-6.128 -2.95,-5.037 c -0.81,0.489 -0.176,1.549 -1.074,2.655 c -0.866,1.066 -2.906,-0.202 -2.251,1.361 c 0.767,1.829 2.293,2.585 3.427,3.421" stroke-width=".9"/>
		<path d="M 150.388,155.65 l -0.608,4.158 c -1.605,-1.545 -3.505,-1.606 -5.816,-0.509 c 0.981,-4.144 4.043,-4.185 6.423,-3.649 z" fill="#1e82d2" stroke-width=".8"/>
		<path d="M 157.025,160.481 c -3.473,-1.191 -3.6,-5.579 -8.527,-5.894 c -1.169,-0.075 0.846,1.952 0.474,3.067 c -0.328,0.985 -1.855,2.325 -0.527,2.54 c 2.879,0.467 3.201,0.718 6.738,2.834" stroke-width=".9"/>
		<path d="M 148.827,160.11 l -0.047,4.197 c -1.982,-1.02 -4.523,-0.245 -6.421,1.468 c 0.23,-4.355 4.034,-5.496 6.468,-5.664 z" fill="#1e82d2" stroke-width=".8"/>
		<path d="M 156.134,161.853 c -2.594,-0.295 -8.29,-4.337 -8.573,-2.697 c -0.199,1.152 0.516,1.978 0.546,2.887 c 0.035,1.037 -1.2,3.082 -0.072,3.813 c 1.163,0.753 1.28,-2.074 8.744,-1.931" stroke-width=".9"/>
		<path d="M 206.17,182.681 l 0.559,4.16 c -2.108,-0.725 -4.511,0.406 -6.143,2.374 c -0.4,-4.343 3.2,-6.018 5.584,-6.534 z" fill="#1e82d2" stroke-width=".8"/>
		<path d="M 222.966,187.9 l -3.662,2.063 c 1.85,1.242 2.395,3.837 1.805,6.322 c 3.713,-2.3 2.881,-6.176 1.857,-8.385 z" fill="#1e82d2" stroke-width=".8"/>
		<path d="M 211.33,185.479 c -1.322,0.489 -3.315,3.153 -5.269,2.791 c -1.669,-0.31 0.402,-2.181 -0.017,-3.489 c -0.435,-1.356 -0.989,-1.897 -0.955,-2.842 c 0.076,-2.106 4.151,0.509 5.797,-0.153 c 2.371,-0.954 1.989,-1.196 3.022,-3.839 c 0.975,-2.495 2.827,-2.101 3.089,-5.266 c 0.262,-3.164 -2.079,-7.807 -2.079,-7.807 c -3.962,6.469 -7.961,5.948 -11.279,2.14 c 0,0 -2.496,4.919 3.294,7.262 c -2.576,2.154 -6.329,-2.122 -6.329,-2.122 c 0,0 -0.812,2.617 -0.178,5.367 c -2.319,-0.613 -2.737,-6.762 -2.737,-6.762 c -1.255,0.61 -1.941,2.807 -2.287,4.778 c -1.633,-3.924 0.141,-8.3 5.473,-10.335 c 0.023,-4.584 -5.374,-11.454 -5.231,-15.679 c 0.297,-8.587 6.872,-12.486 -4.418,-23.452 l 2.114,-24.709 c 9.161,7.802 16.242,22.027 18.177,26.139 c 10.528,22.376 29.85,4.986 25.202,-4.986 c -4.176,-8.96 -17.092,-4.908 -8.253,1.515 c -5.697,3.136 -6.957,-2.416 -6.957,-2.416 c 0,0 -4.426,1.361 -1.739,9.36 c -7.799,-5.716 -0.686,-12.275 -0.686,-12.275 c 0,0 -5.207,-0.872 -4.088,-6.087 c 1.762,3.21 6.139,3.778 6.139,3.778 c 0.238,-2.342 2.065,-3.021 3.325,-3.625 c 0,0 -4.312,-7.054 2.605,-9.103 c -3.115,5.734 0.986,8.008 0.986,8.008 c 3.852,0.453 7.249,2.229 9.283,6.234 c 0,0 -0.138,-12.018 -12.192,-20.778 c -13.439,-9.767 -13.778,-27.978 -4.314,-36.417 c 1.096,-0.977 4.097,-2.58 7.787,-2.655 c 5.166,-0.529 7.68,-3.306 7.576,-6.109 c 3.417,2.637 -0.08,6.418 -0.08,6.418 c 3.193,2.193 4.04,6.124 6.362,7.712 c 2.687,0.408 5.113,0.355 6.889,-1.821 c -0.287,2.321 -2.278,5.36 -4.799,4.658 c 0.342,2.101 0.192,4.201 -1.549,5.659 c 0.577,1.826 1.231,3.841 4.004,4.345 c -2.927,2.695 -5.626,0.478 -6.735,-2.57 c 0,0 -4.713,5.446 -2.042,10.772 c -5.203,0.867 -4.386,-8.815 -4.386,-8.815 c 0,0 -0.807,5.058 -0.039,8.021 c -4.179,-1.448 -4.906,-6.812 -2.466,-10.47 c 1.463,-2.194 5.028,-7.245 5.028,-7.245 c 0,0 -3.958,3.938 -6.021,6.64 c -1.609,-3.797 -0.322,-7.782 1.213,-10.985 c 0.416,-0.869 -0.25,-3.994 -3.518,-3.82 c -2.049,0.109 -13.172,7.917 -8.059,22.777 c 2.044,5.94 12.115,12.937 19.541,23.348 c 6.498,9.11 3.526,27.558 -4.553,33.405 c -6.44,4.661 -17.469,3.389 -22.03,0.442 c -0.549,4.458 -0.153,8.917 -0.153,8.917 c 2.637,5.041 10.234,3.546 14.31,-2.71 c -0.784,4.519 0.551,6.015 3.628,6.113 c -2.887,2.205 -0.967,6.11 3.717,6.501 c -0.999,2.492 -3.74,1.509 -5.61,2.263 c 0,0 0.103,1.825 4.024,2.127 c -0.243,1.285 -4.996,3.012 -4.996,3.012 c 0,0 0.324,1.894 4.467,3.029 c -0.74,1.135 -5.763,2.417 -5.763,2.417 c 0,0 0.761,1.435 4.092,1.736 c -0.379,1.963 -8.031,2.944 -8.031,2.944 c 0,0 3.615,2.55 5.529,2.984 c -2.553,2.021 -6.808,1.474 -6.808,1.474 c -0.345,0.788 -0.05,0.144 -0.256,2.161 c -0.423,4.148 3.914,2.088 3.444,5.582 c -0.097,0.724 -1.853,0.189 -2.796,0.459 c -0.887,0.254 -1.634,3.517 -2.455,2.825 c -3.448,-2.907 0.824,-4.052 -2.455,-6.416" stroke-width=".9"/>
		<path d="M 205.255,190.067 l 2.829,2.508 c -1.951,0.445 -2.932,1.842 -3.243,4.121 c -2.635,-2.782 -1.16,-5.104 0.413,-6.629 z" fill="#1e82d2" stroke-width=".8"/>
		<path d="M 210.811,184.689 c -2.901,2.247 -4.94,1.893 -6.821,5.713 c -0.378,0.767 1.381,0.137 2.111,1.058 c 0.646,0.813 1.008,2.671 1.916,1.681 c 1.969,-2.148 2.685,-5.585 6.397,-7.378" stroke-width=".9"/>
		<path d="M 208.798,191.757 l 3.656,2.075 c -1.854,1.236 -2.407,3.829 -1.825,6.317 c -3.705,-2.312 -2.862,-6.185 -1.83,-8.391 z" fill="#1e82d2" stroke-width=".8"/>
		<path d="M 213.862,185.388 c -1.668,2.004 -7.549,6.334 -6.329,7.469 c 0.857,0.797 2.054,-0.103 2.833,0.371 c 0.888,0.539 1.282,2.162 2.513,1.62 c 1.268,-0.559 -1.529,-5.492 3.967,-9.001" stroke-width=".9"/>
		<path d="M 201.214,154.177 c 2.423,4.609 5.981,4.081 5.981,4.081" fill="none" stroke-width=".9"/>
		<path d="M 217.416,156.293 c 1.969,0.831 4.846,-1.511 4.846,-1.511 l 0,5.063" fill="none" stroke-width=".9"/>
		<rect x="188.244" y="98.871" width="6.799" height="28.372" stroke="none"/>
		<path d="M 180.334,87.397 c 0,0 0.629,-3.833 1.433,-3.907 c -0.424,2.087 1.368,4.666 1.368,4.666 l -2.801,-0.759 z" fill="#fff" stroke-width=".4"/>
		<path d="M 190.614,80.314 c -18.256,0.423 -17.613,-3.268 -17.149,-8.274 c -3.814,0.586 -3.378,10.393 2.158,10.503 c 5.121,0.102 14.688,0 14.688,0 l 0.303,-2.229 z" fill="#1e82d2"/>
		<path d="M 179.773,74.304 c 0,0 0.814,4.893 1.855,4.987 c -0.549,-2.664 1.476,-4.798 1.476,-4.798 l -3.331,-0.189 z" fill="#fff" stroke-width=".4"/>
		<path d="M 166.401,98.39 c 2.415,6.067 10.922,2.85 16.383,4.275 l 17.56,-2.778 l 7.511,2.888 c -0.709,-4.417 0.126,-10.346 0.068,-14.876 c -0.075,-5.798 -0.606,-9.597 -0.606,-9.597 c -0.071,-2.173 -0.959,-4.187 -2.315,-5.505 c 0,0 3.279,-1.322 2.409,-3.366 c -1.138,1.322 -4.979,1.656 -4.979,1.656 c 0.5,-2.761 -2.159,-5.468 -5.675,-6.626 c 0,0 1.78,-2.939 -0.803,-3.954 c -0.709,2.03 -3.373,4.221 -3.373,4.221 c 0,0 -3.498,-0.455 -6.425,1.282 c -1.109,0.659 -2.631,1.843 -5.523,2.083 c -1.029,0.086 -2.68,-0.092 -2.99,0.401 c -0.203,0.323 -0.803,0.054 0.013,1.83 c 0.568,1.236 0.468,4.689 0.147,6.105 c 0,0 1.175,0.787 4.176,0.534 c 3.012,-0.254 7.509,-0.468 7.509,-0.468 c 0,0 -1.992,1.618 -0.696,4.007 c 2.9,5.349 -5.117,8.108 -9.704,4.849 c 0.625,2.298 0.125,3.687 -1.499,4.969 c 4.39,-1.371 9.155,-0.018 12.688,-1.87 c 0,0 2.364,5.536 -4.069,4.862 c -3.828,-0.401 -13.191,6.058 -19.809,5.076 z" stroke-width=".9"/>
		<path d="M 207.316,78.302 c 0.278,2.205 0.925,4.655 4.031,4.233 c -4.155,5.782 -7.489,0.116 -8.816,-1.588" stroke-width=".9"/>
		<path d="M 207.922,87.898 c 0.278,2.205 1.758,5.146 4.863,4.724 c -4.041,4.573 -8.322,-0.375 -9.649,-2.079" stroke-width=".9"/>
		<path d="M 189.329,69.673 c 0,0.702 -0.984,1.271 -2.197,1.271 c -1.213,0 -2.197,-0.569 -2.197,-1.271 c 0,-0.702 1.697,-1.525 2.91,-1.525 c 1.213,0 1.541,0.456 1.484,1.525 z" fill="#000" stroke-width=".9" stroke-linecap="round"/>
		<path d="M 203.871,96.097 c 0.278,2.205 4.068,7.111 7.173,6.689 c -4.571,3.666 -12.184,-0.602 -13.511,-2.305" stroke-width=".9"/>
		<path d="M 187.509,95.842 c -3.88,0.472 -6.985,0.678 -10.633,3.655 c -3.194,2.607 -9.348,4.546 -12.422,10.815 c 5.259,-1.1 13.326,-8.199 13.326,-8.199 c 0,0 -2.508,4.817 -6.246,7.254 c 3.644,0.775 10.221,-5.063 10.221,-5.063 c 0,0 -0.511,5.781 -3.331,7.783 c 2.177,2.985 7.193,-3.703 7.193,-3.703 c 0,0 -1.42,4.288 -4.694,8.463 c 6.114,1.53 8.859,-10.503 8.859,-10.503 c 0,0 0.322,6.706 -1.666,10.126 c 6.417,0.397 5.527,-11.259 5.527,-11.259 c 0,0 0.208,13.243 5.149,11.788 c -1.571,-2.739 -2.953,-10.05 -2.953,-10.05 c 0,0 2.783,10.39 8.177,8.614 c -3.54,-4.345 -2.678,-12.591 -2.271,-14.13 c -0.88,2.39 1.552,13.45 7.534,7.972 c -3.748,-0.907 -3.596,-7.519 -3.596,-7.519" stroke-width=".9"/>
	</g>
</svg>