<?xml version="1.0" encoding="utf-8"?>
<svg xmlns="http://www.w3.org/2000/svg" height="700" width="980" viewBox="0 0 980 700">
  <g>
    <rect height="700" width="980" fill="#000000" />
    <path id="path1" transform="rotate(0,490,350) translate(303.758301969384,161) scale(11.8124943673638,11.8124943673638)  " fill="#FFFFFF" d="M12.6192,24.674386C13.408197,24.670384 14.152195,24.987388 14.861193,25.927394 13.330198,26.912402 11.464203,27.197404 9.2242093,28.432414 7.4672141,29.400422 5.5302196,31.704438 3.3782253,31.147435 2.3492289,30.880433 2.7952271,30.192428 2.1262293,29.476422 1.3552313,28.652415 -0.16276455,28.674417 0.038234711,27.387406 0.3742342,25.24039 5.037221,26.494399 7.554214,26.135396 9.4462087,25.865394 11.113204,24.683385 12.6192,24.674386z M17.380186,16.897326C17.565186,16.897326 17.714185,17.143328 17.714185,17.44733 17.714185,17.752333 17.565186,17.998334 17.380186,17.998334 17.196187,17.998334 17.047187,17.752333 17.047188,17.44733 17.047187,17.143328 17.196187,16.897326 17.380186,16.897326z M15.444192,16.807325C15.628191,16.807325 15.777191,17.073327 15.777191,17.40333 15.777191,17.733332 15.628191,17.998334 15.444192,17.998334 15.259192,17.998334 15.111193,17.733332 15.111193,17.40333 15.111193,17.073327 15.259192,16.807325 15.444192,16.807325z M14.516194,16.807325C14.700194,16.807325 14.849193,17.092327 14.849194,17.44633 14.849193,17.801332 14.700194,18.087335 14.516194,18.087335 14.332195,18.087335 14.182195,17.801332 14.182195,17.44633 14.182195,17.092327 14.332195,16.807325 14.516194,16.807325z M27.735157,15.416314C27.891157,15.417315 28.054156,15.439315 28.224155,15.488315 29.224153,17.170328 32.297145,17.764333 31.356147,20.706355 26.958159,21.251359 23.08817,22.322368 19.87218,24.047379 18.564183,23.685378 17.840185,22.739369 16.531189,22.377368 18.658183,20.813355 21.603174,20.19135 24.048167,18.410337 25.324164,17.48033 26.226161,15.410315 27.735157,15.416314z M4.1912231,14.82531C6.091218,14.82831 6.9642158,17.552331 8.5982108,18.828341 10.142207,20.033349 13.071198,21.143357 15.697191,22.58537 20.217178,25.070388 21.682175,26.249396 27.598158,26.971402 27.741158,26.988402 31.137147,27.098403 30.729148,29.058419 30.52715,30.032426 30.27115,29.28942 29.059154,30.102426 28.026156,30.795432 27.792157,31.87444 26.971159,31.981441 24.943165,32.247443 23.31617,29.580422 22.169173,28.850417 20.001179,27.470407 16.548189,26.082397 13.400198,24.466384 10.235206,22.841371 7.1712151,21.204358 4.4222231,20.498353 2.7322273,20.065351 0.40623379,20.312352 0.038234711,18.828341 -0.35176373,17.251328 2.3462286,15.735317 3.3782253,15.070312 3.5362253,14.968311 3.5282249,14.910311 3.7962246,14.86231 3.9332237,14.83631 4.0642233,14.82431 4.1912231,14.82531z M14.933193,14.76831C15.117193,14.76831 15.266192,15.046311 15.266192,15.391315 15.266192,15.736317 15.117193,16.015319 14.933193,16.015319 14.748194,16.015319 14.599194,15.736317 14.599194,15.391315 14.599194,15.046311 14.748194,14.76831 14.933193,14.76831z M15.891191,14.71631C16.07519,14.71631 16.22419,15.006311 16.22419,15.365314 16.22419,15.725317 16.07519,16.015319 15.891191,16.015319 15.706191,16.015319 15.557191,15.725317 15.557191,15.365314 15.557191,15.006311 15.706191,14.71631 15.891191,14.71631z M13.912196,14.71631C14.096196,14.71631 14.245195,15.006311 14.245195,15.365314 14.245195,15.725317 14.096196,16.015319 13.912196,16.015319 13.727197,16.015319 13.578197,15.725317 13.578197,15.365314 13.578197,15.006311 13.727197,14.71631 13.912196,14.71631z M16.755188,14.621308C16.940187,14.621308 17.089187,14.89931 17.089187,15.244313 17.089187,15.591316 16.940187,15.870317 16.755188,15.870317 16.571189,15.870317 16.422189,15.591316 16.422189,15.244313 16.422189,14.89931 16.571189,14.621308 16.755188,14.621308z M17.766185,14.496307C17.950185,14.496307 18.099185,14.80231 18.099185,15.182313 18.099185,15.562316 17.950185,15.870317 17.766185,15.870317 17.581186,15.870317 17.432186,15.562316 17.432186,15.182313 17.432186,14.80231 17.581186,14.496307 17.766185,14.496307z M11.312204,13.817303C13.330198,14.235306 12.295201,17.705332 14.235195,18.201336 14.969193,18.146336 15.575191,18.178335 16.09719,18.190335L16.21319,18.192336 16.18619,18.151336C16.12619,18.036334 16.08919,17.878333 16.08919,17.702332 16.08919,17.351329 16.238189,17.069327 16.422189,17.069327 16.606189,17.069327 16.755188,17.351329 16.755188,17.702332 16.755188,17.878333 16.718188,18.036334 16.658188,18.151336L16.633189,18.189336 16.822188,18.179336C17.345186,18.138335 17.782185,17.994334 18.202184,17.575331 19.148181,16.631324 18.214184,13.985304 20.290178,14.025304 22.029173,22.015365 9.3702087,21.974364 11.312204,13.817303z M15.697191,9.6412706C15.594191,10.588278 14.408195,11.546285 15.070193,12.565292 15.348192,12.018289 15.99719,12.166289 16.531189,12.355291 16.512189,11.192282 16.426189,10.095274 15.697191,9.6412706z M18.318184,6.7762485C17.568186,6.7592485 16.873188,7.208252 16.741188,8.1792593 16.531189,9.7182708 18.768182,11.473284 20.290178,10.058274 20.789177,7.9662576 19.48718,6.8032486 18.318184,6.7762485z M13.579197,6.7542481C12.3672,6.7442484 10.973204,7.9482574 11.521203,10.058274 13.090198,11.535285 15.441192,9.5852699 15.070193,7.9712577 14.881193,7.1472514 14.258195,6.7592485 13.579197,6.7542481z M15.89219,0.00019693375C19.867179,-0.025803328 23.793168,2.5232161 22.586172,7.7632561 22.108173,8.4682612 21.970174,9.5132694 21.125175,9.8502722 21.253176,10.558278 22.460172,10.184275 22.377172,11.102282 21.474174,12.704294 18.969182,12.704294 18.202184,14.443307 16.357189,14.456307 14.905193,14.83531 13.192198,14.443307 12.788199,12.688293 10.547205,12.772294 9.4332087,11.729286 9.2512093,10.712278 9.7182078,10.344276 9.8502076,9.6412706 9.8102076,8.916265 9.1122096,8.8482642 9.0162096,8.1792593 7.6382136,2.7952182 11.791202,0.027197123 15.89219,0.00019693375z" />
  </g>
</svg>

