<?xml version="1.0" encoding="utf-8"?>
<svg xmlns="http://www.w3.org/2000/svg" height="700" width="980" viewBox="0 0 980 700">
  <g>
    <rect height="700" width="980" fill="#000000" />
    <path id="path1" transform="rotate(0,490,350) translate(301,208.084617262162) scale(11.8125007040799,11.8125007040799)  " fill="#FFFFFF" d="M4.8109982,20.163322C4.929002,20.164329 5.0439999,20.179343 5.153001,20.209342 5.2589962,20.340326 5.3259976,20.537347 5.3509991,20.748347L5.352998,20.775325 5.3900005,20.736324C5.7679989,20.37832 6.3440034,20.219321 7.0010011,20.229331 7.1680009,20.231345 7.339998,20.245322 7.515001,20.26934 7.7579972,20.620326 7.9109976,21.060333 7.8920004,21.67435 7.3180024,21.942357 6.3379991,22.121345 5.4840023,22.043342L5.3710033,22.029334 5.3730022,22.075355C5.3630001,22.912368 3.7949991,22.754346 3.3689963,22.425365 3.1459968,22.252359 2.916001,21.706332 2.9369974,21.451326 2.9899985,20.795345 3.9820032,20.153342 4.8109982,20.163322z M28.223997,19.933339C28.492003,19.937337 28.745009,19.968343 28.973007,20.052327 29.367005,21.905339 27.124998,21.640353 25.892012,21.512332 25.497999,20.896329 25.986006,20.301322 26.379011,19.999318 26.97801,20.043325 27.635008,19.924337 28.223997,19.933339z M29.794007,19.460313C30.298004,19.45131 30.937012,19.80434 31.141007,20.054342 31.217011,20.321342 31.193009,20.685329 31.194,21.026334 30.852005,21.43033 30.118012,22.623363 29.465012,21.78333 29.080002,21.288331 29.457001,20.581325 29.681,20.107322 29.624008,19.91332 29.211014,20.073323 29.194,19.838336 29.303009,19.568315 29.530014,19.464311 29.794007,19.460313z M12.698001,18.638314C13.070003,18.629312,13.412006,18.731334,13.679004,19.020307L13.727,19.07533 13.858005,19.110334C14.364001,19.265334 14.835003,19.549333 15.167004,20.011342 14.408,20.314323 14.026004,20.545343 13.136005,20.862333 12.719005,21.012326 10.922,21.822332 10.756998,21.188323 10.669001,20.849332 11.228999,20.237327 11.664005,19.864337L11.667003,19.862323 11.618999,19.873342C11.111003,19.978322 10.609003,19.939321 10.163004,19.566331 10.783999,19.292312 11.824001,18.659311 12.698001,18.638314z M26.775999,17.02029C26.805006,17.021297 26.835005,17.023311 26.865004,17.025295 27.342009,17.068294 27.758009,17.519317 27.892012,17.945316 27.706007,18.0463 27.512007,18.141301 27.244002,18.161321 26.787001,18.406318 26.63101,19.060315 26.27101,19.512315 26.033003,19.809314 25.657011,19.962331 25.514998,20.322318 25.309004,20.840329 25.308012,21.428346 25.136,21.945348 24.989012,22.386361 24.839003,22.984359 24.595007,23.349353 24.064001,24.150354 22.115004,24.244378 21.136008,23.620351 21.124006,23.230363 21.185003,22.912368 21.352003,22.701337 21.925001,22.598338 22.361006,23.140367 23.081007,22.864362 23.632002,22.652354 23.861006,21.781347 23.784003,21.133331 23.749006,20.842344 23.468008,20.58932 23.513006,20.322318 23.572005,19.998342 24.378004,19.752338 24.757002,19.404311 25.036009,19.149335 25.430998,18.67933 25.568007,18.377326 25.803007,17.856326 25.887007,16.993312 26.775999,17.02029z M8.0550024,16.917293C8.9069998,18.011325 9.0930044,19.77132 10.324,20.485345 10.181002,21.396333 9.9120047,22.616344 10.756998,22.809339 11.421001,22.960342 12.705005,22.208352 12.487003,23.512347 9.9010031,24.899383 8.3789999,22.446361 7.8920004,20.432336 7.688997,19.589311 7.6070039,18.687326 7.1900041,18.161321 6.9830033,17.900302 6.6699998,17.885318 6.6490037,17.674318 6.5950028,17.104306 7.6879975,17.023311 8.0550024,16.917293z M12.541003,10.43024L12.649005,10.43024C13.051006,10.777258 13.492999,11.314249 13.623004,11.999253 13.764003,12.751273 13.837001,13.665282 14.556003,13.864289L14.619998,13.879273 14.619998,13.119288C14.619998,12.968285 14.742999,12.845268 14.894001,12.845268 15.044003,12.845268 15.167004,12.968285 15.167004,13.119288L15.167004,13.915284 15.216999,13.920289C15.278004,13.927278,15.341999,13.934266,15.409001,13.941285L15.466,13.947267 15.466,13.351284C15.466,13.200281 15.589001,13.077264 15.740002,13.077264 15.891003,13.077264 16.013005,13.200281 16.013005,13.351284L16.013005,14.010286 16.074002,14.017275 16.289005,14.040285 16.289005,13.192286C16.289005,13.041284 16.412007,12.918267 16.563,12.918267 16.714001,12.918267 16.836003,13.041284 16.836003,13.192286L16.836003,14.092287 16.877003,14.095278C17.006001,14.105288,17.130001,14.113283,17.244999,14.117281L17.348004,14.120272 17.348004,13.192286C17.348004,13.041284 17.470005,12.918267 17.621006,12.918267 17.772,12.918267 17.893002,13.041284 17.893002,13.192286L17.893002,14.071291 17.924999,14.057284C17.936001,14.052279 17.945004,14.046267 17.952,14.040285 18.848004,13.662291 18.493,11.122262 19.784001,10.864264 20.093006,11.415263 20.102001,13.100275 19.623005,13.83728 19.374005,14.218295 18.958004,14.473272 18.649006,14.809273 18.353001,15.132274 17.926007,15.601302 17.622006,15.674301 16.775006,15.878283 15.739002,15.395276 14.704005,15.404279 14.006999,14.821297 13.382999,14.166293 12.704005,13.566282 13.028003,12.337268 12.098003,11.399272 12.541003,10.43024z M16.379002,7.3492205C16.276005,7.5822241 16.109005,7.8972289 15.962002,8.2422335 15.718006,8.8152363 15.529003,9.4682562 15.784001,9.9452498 16.190006,9.9912407 16.093006,9.5322525 16.379002,9.4582464 16.676007,9.5932572 16.701,10.00125 17.028004,10.107239 18.006001,9.4712469 17.110005,8.202224 16.542004,7.5352266 16.484005,7.4662258 16.428005,7.4042136 16.379002,7.3492205z M18.455006,5.477196L18.393002,5.478203 18.383999,5.478203 18.373005,5.478203 18.347004,5.4802172 18.312,5.4812243 18.291004,5.4832079 18.271,5.484215 18.250004,5.4861986 18.229,5.4882128 18.192005,5.4932177 18.165005,5.4952013 18.153004,5.4972155 18.143002,5.4982226 18.074002,5.5092089 18.055004,5.5121996C17.417004,5.6232235 17.026005,5.9262044 16.973004,6.3772275 16.960003,6.4862067 16.977001,6.6092241 17.016003,6.7392299 17.227001,7.442239 18.083004,8.3532269 18.433003,8.4312298 19.408001,8.645221 19.962002,7.6222331 19.886006,6.7352321 19.869,6.5312207 19.818005,6.3342283 19.730999,6.1602151L19.729,6.158201 19.712002,6.1262185 19.702999,6.1092202 19.699002,6.1022007 19.696003,6.0982029 19.692005,6.0922215C19.685002,6.0802281,19.678005,6.0682041,19.670002,6.0572178L19.664005,6.0492222 19.660999,6.0432098 19.656002,6.0372283 19.645001,6.0222137C19.637005,6.0102203,19.628002,5.9982269,19.618,5.98721L19.618,5.9862025 19.617001,5.9842188 19.612004,5.9792139 19.59,5.9522059 19.573002,5.9332239 19.566006,5.9262044 19.563,5.9222066 19.558003,5.9172017C19.548001,5.9062154,19.537007,5.894222,19.525006,5.8832052L19.516003,5.8742025 19.510006,5.8682205 19.503002,5.8612015 19.490002,5.8492081C19.478001,5.8382218,19.465,5.8272049,19.452,5.8162186L19.450001,5.8142044 19.448002,5.8122203 19.440006,5.8062083 19.413006,5.7842052 19.387005,5.7642162 19.379002,5.7582042 19.375004,5.7552135 19.371006,5.7522223C19.355999,5.7422125,19.341999,5.7322027,19.327,5.7222235L19.312,5.7132208 19.304005,5.7072088 19.295002,5.702204 19.280003,5.6932008C19.265003,5.6832216,19.248005,5.6742189,19.232006,5.6652162L19.227001,5.6622255 19.222004,5.6592042 19.212002,5.6541993 19.181004,5.6382077 19.144001,5.6212094 19.135006,5.6162045 19.131001,5.6151974 19.128002,5.6132138C19.110005,5.6052181,19.091,5.5972225,19.073002,5.5902035L19.052006,5.5822079 19.040005,5.5772025 19.031002,5.5742118 19.015003,5.5681998C18.994999,5.5622184,18.975002,5.5551994,18.955006,5.5492179L18.947003,5.5461967 18.940006,5.544213 18.927006,5.5412223 18.893002,5.5312125 18.841999,5.5192187 18.833004,5.5172045C18.813999,5.5132067,18.795002,5.5092089,18.776005,5.5062182L18.766003,5.504204 18.762005,5.5031969 18.752003,5.5022204 18.719006,5.4962084 18.700001,5.4942248 18.693005,5.4932177 18.683003,5.4922106 18.659001,5.4882128 18.632,5.4861986 18.621006,5.4852221 18.614002,5.484215 18.598004,5.4832079 18.556004,5.4802172 18.547001,5.4792101 18.545002,5.4792101 18.535999,5.4792101C18.514004,5.478203,18.493,5.477196,18.471005,5.477196z M14.595004,5.4492109L14.546001,5.4511945 14.542003,5.4511945 14.540004,5.4511945 14.515002,5.4522016C14.488002,5.4532087 14.461002,5.4552228 14.433002,5.4572065 13.883998,5.5052111 13.261005,5.8122203 12.903003,6.2952263L12.902003,6.2962029C12.657001,6.6272299 12.537006,7.0412347 12.649005,7.5122163 12.7,7.7252304 12.805003,7.8992431 12.947002,8.0352309L12.960002,8.0472243 13.010005,8.0922377C13.528003,8.5232413,14.430003,8.52022,14.919003,8.1612389L14.920002,8.1602318C15.142002,7.9962289 15.310002,7.6012366 15.460003,7.296211 15.490002,7.2362129 15.516003,7.1752383 15.540005,7.1152098L15.568005,7.0382135 15.568005,7.0372369 15.573002,7.0252125 15.593006,6.9602096 15.596005,6.952214 15.597004,6.9502303 15.601002,6.9352157 15.616001,6.8792155 15.619999,6.867222 15.621006,6.8632242 15.625004,6.8462255 15.636006,6.7962067 15.639004,6.7832062 15.640003,6.7782318 15.644001,6.7582123 15.652004,6.7142055 15.654003,6.6992213 15.655003,6.6932094 15.659001,6.6712057 15.663006,6.6322043 15.665005,6.6182267 15.666004,6.6092241 15.668003,6.5862138 15.670002,6.5512097 15.672001,6.5372326 15.672001,6.5272228 15.673001,6.5022285 15.673001,6.4712226 15.674,6.4582221 15.674,6.4472048 15.674,6.4202273 15.672001,6.3932192 15.672001,6.3802182 15.671002,6.3682248 15.669003,6.3392026 15.666004,6.3162224 15.665005,6.3052056 15.663006,6.2912285 15.66,6.2612293 15.656002,6.2412097 15.654003,6.2312305 15.651005,6.2162153 15.645001,6.1862166 15.641003,6.1692183 15.639004,6.1602151 15.633999,6.1432168 15.626003,6.112211 15.622006,6.09921 15.619999,6.0912144 15.613003,6.0722019 15.603001,6.0422027 15.598004,6.0312164 15.596005,6.0252044 15.587002,6.0052154 15.574002,5.974209 15.569004,5.9662134 15.567005,5.9612086 15.555004,5.9392054 15.540005,5.9102132 15.535999,5.9042012 15.534001,5.9002034 15.519001,5.8762166 15.501003,5.8492081 15.499005,5.8452103 15.497006,5.8422196 15.475002,5.8152115 15.458004,5.7922008 15.456005,5.7902171 15.455006,5.788203 15.419003,5.7482245 15.409001,5.7382147 15.409001,5.7372076 15.408001,5.7372076C15.392002,5.7202093,15.375004,5.7042181,15.357006,5.689203L15.355999,5.6881959 15.352001,5.6852052 15.302006,5.6451967 15.299,5.643213 15.297001,5.6422059 15.285999,5.6352169 15.242001,5.6062252 15.236004,5.6021969 15.234005,5.6012203 15.220005,5.5942013 15.177006,5.570214 15.169003,5.5662162 15.165005,5.564202 15.150006,5.5582206 15.108006,5.5382011 15.097004,5.5342033 15.091999,5.5322196 15.076,5.5272147 15.034001,5.5121996 15.019001,5.5071947 15.013005,5.5052111 14.997006,5.5012133 14.956005,5.4892199 14.937,5.4852221 14.929005,5.4832079 14.913006,5.4802172 14.873005,5.4722216 14.850002,5.4682238 14.84,5.4672167 14.824001,5.4652025 14.784999,5.4592206 14.756999,5.4572065 14.746005,5.4552228 14.730998,5.4552228 14.692004,5.4522016 14.659,5.4511945 14.646999,5.4502179 14.631999,5.4502179z M0,3.7822051C0.49099742,4.0981867 0.73999806,4.6432044 1.0820012,5.0792129 3.5629968,8.2482455 6.7660005,11.064247 10.163004,13.403286 14.099002,16.114307 18.633999,18.253303 24.216002,19.241317 23.528006,20.63232 18.438999,19.307327 23.244002,20.647334 23.287008,20.923337 23.468008,21.304353 23.352003,21.565341 20.488003,21.172332 17.841,20.297324 15.352001,19.349319 12.933002,18.429328 10.720003,17.003291 8.8109991,15.565292 6.0120027,13.459287 2.9889991,10.920264 1.2439961,7.6752426 0.64499678,6.5602124 0.0079956074,5.2571928 0,3.7822051z M31.973999,3.1871989C31.995011,3.1931805 31.998001,3.2171979 31.999998,3.2411849 31.624008,6.707217 29.637009,9.6592371 27.622999,11.674268 25.971998,13.325283 24.564001,14.7743 22.596007,16.214284 21.503004,17.014308 20.631001,17.920322 18.865002,17.349303 19.795002,16.554313 17.843006,17.567323 17.407002,16.646295 20.223004,14.892282 23.047003,13.036279 25.460005,10.809241 27.855009,8.599231 30.147003,6.1942122 31.839005,3.3491876 31.874008,3.2881825 31.921005,3.2571764 31.947006,3.1881754 31.958008,3.1851847 31.967011,3.1851847 31.973999,3.1871989z M17.147,0.00016098485C17.859005,0.0051659468 18.531002,0.11316854 19.082005,0.37717847 19.567005,0.60917482 20.117001,1.2711676 20.541004,1.8371818 21.012007,2.4641704 21.701002,3.0761752 21.784003,3.7281885 21.952002,5.0291941 21.009001,8.1572411 21.244002,8.3772442 21.261008,8.8082478 20.918005,9.0152495 20.882002,9.4162543 20.409001,9.862242 19.895001,9.690243 19.352001,9.8902571 18.605999,10.164246 18.463001,10.978248 18.035999,11.560253L17.952,11.667249 17.952,12.162279C17.952,12.313251 17.830006,12.435261 17.680004,12.435261 17.529003,12.435261 17.407002,12.313251 17.407002,12.162279L17.407002,11.457256C17.09,11.737257,17.146,11.739271,16.757,11.431255L16.757,12.162279C16.757,12.313251 16.633999,12.435261 16.483006,12.435261 16.332005,12.435261 16.210003,12.313251 16.210003,12.162279L16.210003,11.438243 16.205006,11.43925C16.115002,11.463268,16.007,11.527264,15.895001,11.572247L15.890003,11.574261 15.890003,12.220263C15.890003,12.371265 15.767002,12.494282 15.616001,12.494282 15.465,12.494282 15.343006,12.371265 15.343006,12.220263L15.343006,11.46226 15.296002,11.452251C15.248005,11.445262,15.196003,11.445262,15.143002,11.448253L15.077,11.453258 15.077,11.969254C15.077,12.120256 14.955006,12.243273 14.804004,12.243273 14.653003,12.243273 14.530002,12.120256 14.530002,11.969254L14.530002,11.368266 14.475002,11.314249C13.992999,10.791266 13.839,9.9002363 13.082004,9.83624 12.537006,9.7912571 12.116,10.345247 11.460002,9.9982598 11.305003,9.6142542 10.780001,8.3322298 11.101001,7.9412358 10.791002,7.8392145 10.964999,6.8252294 10.920001,6.1612227 10.809,4.5341947 11.080005,2.8701796 12.000003,1.7821886 12.224002,1.519186 12.901004,0.86018399 13.190005,0.75617913 14.281001,0.36115641 15.787007,-0.0088417366 17.147,0.00016098485z" />
  </g>
</svg>

